<svg width="26" height="24" viewBox="0 0 26 24" fill="none" xmlns="http://www.w3.org/2000/svg">
<path d="M19.25 5.75H20.5V7C20.5 7.33152 20.6317 7.64946 20.8661 7.88388C21.1005 8.1183 21.4185 8.25 21.75 8.25C22.0815 8.25 22.3995 8.1183 22.6339 7.88388C22.8683 7.64946 23 7.33152 23 7V5.75H24.25C24.5815 5.75 24.8995 5.6183 25.1339 5.38388C25.3683 5.14946 25.5 4.83152 25.5 4.5C25.5 4.16848 25.3683 3.85054 25.1339 3.61612C24.8995 3.3817 24.5815 3.25 24.25 3.25H23V2C23 1.66848 22.8683 1.35054 22.6339 1.11612C22.3995 0.881696 22.0815 0.75 21.75 0.75C21.4185 0.75 21.1005 0.881696 20.8661 1.11612C20.6317 1.35054 20.5 1.66848 20.5 2V3.25H19.25C18.9185 3.25 18.6005 3.3817 18.3661 3.61612C18.1317 3.85054 18 4.16848 18 4.5C18 4.83152 18.1317 5.14946 18.3661 5.38388C18.6005 5.6183 18.9185 5.75 19.25 5.75ZM24.25 10.75C23.9185 10.75 23.6005 10.8817 23.3661 11.1161C23.1317 11.3505 23 11.6685 23 12V19.5C23 19.8315 22.8683 20.1495 22.6339 20.3839C22.3995 20.6183 22.0815 20.75 21.75 20.75H4.25C3.91848 20.75 3.60054 20.6183 3.36612 20.3839C3.1317 20.1495 3 19.8315 3 19.5V7.5125L10.35 14.875C11.0531 15.5773 12.0062 15.9717 13 15.9717C13.9938 15.9717 14.9469 15.5773 15.65 14.875L18.7375 11.7875C18.9729 11.5521 19.1051 11.2329 19.1051 10.9C19.1051 10.5671 18.9729 10.2479 18.7375 10.0125C18.5021 9.77712 18.1829 9.64489 17.85 9.64489C17.5171 9.64489 17.1979 9.77712 16.9625 10.0125L13.875 13.1C13.6413 13.329 13.3272 13.4573 13 13.4573C12.6728 13.4573 12.3587 13.329 12.125 13.1L4.7625 5.75H14.25C14.5815 5.75 14.8995 5.6183 15.1339 5.38388C15.3683 5.14946 15.5 4.83152 15.5 4.5C15.5 4.16848 15.3683 3.85054 15.1339 3.61612C14.8995 3.3817 14.5815 3.25 14.25 3.25H4.25C3.25544 3.25 2.30161 3.64509 1.59835 4.34835C0.895088 5.05161 0.5 6.00544 0.5 7V19.5C0.5 20.4946 0.895088 21.4484 1.59835 22.1517C2.30161 22.8549 3.25544 23.25 4.25 23.25H21.75C22.7446 23.25 23.6984 22.8549 24.4017 22.1517C25.1049 21.4484 25.5 20.4946 25.5 19.5V12C25.5 11.6685 25.3683 11.3505 25.1339 11.1161C24.8995 10.8817 24.5815 10.75 24.25 10.75Z" fill="white"/>
</svg>