<svg width="18" height="14" viewBox="0 0 18 14" fill="none" xmlns="http://www.w3.org/2000/svg">
<path d="M17.3875 1.01251C17.2713 0.895349 17.133 0.802355 16.9807 0.738895C16.8284 0.675434 16.665 0.642761 16.5 0.642761C16.335 0.642761 16.1716 0.675434 16.0193 0.738895C15.867 0.802355 15.7287 0.895349 15.6125 1.01251L6.3 10.3375L2.3875 6.41251C2.26685 6.29596 2.12442 6.20432 1.96835 6.14281C1.81228 6.08131 1.64563 6.05115 1.4779 6.05405C1.31018 6.05695 1.14466 6.09286 0.990816 6.15973C0.836968 6.22659 0.697796 6.32311 0.581248 6.44376C0.4647 6.56441 0.373058 6.70684 0.311553 6.86291C0.250048 7.01898 0.219885 7.18563 0.222786 7.35336C0.225688 7.52108 0.261598 7.68659 0.328465 7.84044C0.395332 7.99429 0.491846 8.13346 0.612498 8.25001L5.4125 13.05C5.5287 13.1672 5.66695 13.2602 5.81928 13.3236C5.9716 13.3871 6.13498 13.4198 6.3 13.4198C6.46501 13.4198 6.6284 13.3871 6.78072 13.3236C6.93304 13.2602 7.07129 13.1672 7.1875 13.05L17.3875 2.85001C17.5144 2.73296 17.6156 2.59089 17.6849 2.43277C17.7542 2.27464 17.7899 2.10389 17.7899 1.93126C17.7899 1.75863 17.7542 1.58788 17.6849 1.42975C17.6156 1.27163 17.5144 1.12956 17.3875 1.01251Z" fill="white"/>
</svg>
