<svg width="18" height="18" viewBox="0 0 18 18" fill="none" xmlns="http://www.w3.org/2000/svg">
<path d="M9.16665 0.666687C7.51847 0.666687 5.90731 1.15543 4.5369 2.07111C3.16649 2.98679 2.09838 4.28827 1.46765 5.81099C0.836924 7.33371 0.671896 9.00926 0.993439 10.6258C1.31498 12.2423 2.10866 13.7271 3.27409 14.8926C4.43953 16.058 5.92439 16.8517 7.5409 17.1732C9.15741 17.4948 10.833 17.3297 12.3557 16.699C13.8784 16.0683 15.1799 15.0002 16.0956 13.6298C17.0112 12.2594 17.5 10.6482 17.5 9.00002C17.5 7.90567 17.2844 6.82204 16.8656 5.81099C16.4469 4.79994 15.833 3.88129 15.0592 3.10746C14.2854 2.33364 13.3667 1.71981 12.3557 1.30102C11.3446 0.882235 10.261 0.666687 9.16665 0.666687ZM9.16665 15.6667C7.84811 15.6667 6.55918 15.2757 5.46285 14.5432C4.36652 13.8106 3.51204 12.7694 3.00745 11.5512C2.50287 10.3331 2.37085 8.99263 2.62808 7.69942C2.88532 6.40621 3.52025 5.21833 4.4526 4.28598C5.38495 3.35363 6.57284 2.71869 7.86605 2.46145C9.15926 2.20422 10.4997 2.33624 11.7179 2.84082C12.936 3.34541 13.9772 4.19989 14.7098 5.29622C15.4423 6.39255 15.8333 7.68148 15.8333 9.00002C15.8333 10.7681 15.1309 12.4638 13.8807 13.7141C12.6305 14.9643 10.9348 15.6667 9.16665 15.6667ZM11.75 9.52502L9.99998 8.51669V4.83335C9.99998 4.61234 9.91219 4.40038 9.75591 4.2441C9.59963 4.08782 9.38766 4.00002 9.16665 4.00002C8.94564 4.00002 8.73368 4.08782 8.57739 4.2441C8.42111 4.40038 8.33332 4.61234 8.33332 4.83335V9.00002C8.33332 9.00002 8.33332 9.06669 8.33332 9.10002C8.33825 9.15744 8.35232 9.2137 8.37498 9.26669C8.39215 9.31613 8.41449 9.36362 8.44165 9.40835C8.46445 9.45572 8.4924 9.50043 8.52498 9.54169L8.65832 9.65002L8.73332 9.72502L10.9 10.975C11.027 11.047 11.1707 11.0844 11.3167 11.0834C11.5012 11.0846 11.6809 11.0247 11.8276 10.9128C11.9744 10.8009 12.0799 10.6436 12.1275 10.4653C12.1752 10.287 12.1623 10.098 12.091 9.92784C12.0197 9.75767 11.8939 9.61599 11.7333 9.52502H11.75Z" fill="black"/>
</svg>
