<svg width="15" height="19" viewBox="0 0 15 19" fill="none" xmlns="http://www.w3.org/2000/svg">
<path d="M12.75 2.91998C11.3576 1.5276 9.46913 0.745361 7.5 0.745361C5.53087 0.745361 3.64239 1.5276 2.25 2.91998C0.857613 4.31237 0.0753784 6.20085 0.0753784 8.16998C0.0753784 10.1391 0.857613 12.0276 2.25 13.42L6.86125 18.04C6.94259 18.122 7.03937 18.1871 7.146 18.2315C7.25262 18.2759 7.36699 18.2988 7.4825 18.2988C7.59801 18.2988 7.71238 18.2759 7.819 18.2315C7.92563 18.1871 8.02241 18.122 8.10375 18.04L12.75 13.3762C14.1366 11.9896 14.9155 10.109 14.9155 8.14811C14.9155 6.18719 14.1366 4.30658 12.75 2.91998ZM11.4987 12.125L7.5 16.1412L3.50125 12.125C2.71125 11.3343 2.17342 10.3271 1.95573 9.23074C1.73805 8.1344 1.85029 6.99814 2.27827 5.96558C2.70624 4.93302 3.43074 4.05053 4.36018 3.42965C5.28961 2.80877 6.38226 2.47739 7.5 2.47739C8.61774 2.47739 9.71039 2.80877 10.6398 3.42965C11.5693 4.05053 12.2938 4.93302 12.7217 5.96558C13.1497 6.99814 13.262 8.1344 13.0443 9.23074C12.8266 10.3271 12.2887 11.3343 11.4987 12.125ZM4.875 5.48373C4.16862 6.19228 3.77197 7.15198 3.77197 8.15248C3.77197 9.15299 4.16862 10.1127 4.875 10.8212C5.39979 11.3469 6.06814 11.7059 6.79619 11.8532C7.52425 12.0005 8.27958 11.9295 8.96744 11.6491C9.65529 11.3687 10.245 10.8915 10.6627 10.2772C11.0803 9.66292 11.3072 8.93899 11.315 8.19623C11.3189 7.70029 11.2234 7.20858 11.034 6.7502C10.8447 6.29181 10.5653 5.87604 10.2125 5.52748C9.86571 5.17274 9.4522 4.89008 8.99574 4.69577C8.53929 4.50145 8.04892 4.39932 7.55285 4.39526C7.05678 4.39119 6.5648 4.48527 6.10522 4.67207C5.64565 4.85888 5.22756 5.13472 4.875 5.48373ZM8.97875 9.57873C8.64716 9.91538 8.20893 10.1264 7.73899 10.1757C7.26904 10.225 6.79656 10.1095 6.40232 9.84904C6.00808 9.58855 5.71657 9.19919 5.57763 8.74756C5.43869 8.29592 5.46094 7.81004 5.64059 7.37299C5.82023 6.93595 6.14611 6.57487 6.56251 6.3515C6.97891 6.12813 7.45997 6.05634 7.92344 6.1484C8.38692 6.24046 8.80402 6.49065 9.10345 6.8562C9.40287 7.22175 9.56602 7.67996 9.565 8.15248C9.55227 8.69259 9.32568 9.20557 8.935 9.57873H8.97875Z" fill="black"/>
</svg>
