<svg width="16" height="20" viewBox="0 0 16 20" fill="none" xmlns="http://www.w3.org/2000/svg">
<path d="M13.5 3.10667C12.0413 1.64798 10.0629 0.828491 7.99998 0.828491C5.93708 0.828491 3.95867 1.64798 2.49998 3.10667C1.04129 4.56536 0.221802 6.54377 0.221802 8.60667C0.221802 10.6696 1.04129 12.648 2.49998 14.1067L7.33081 18.9467C7.41603 19.0326 7.51741 19.1008 7.62911 19.1473C7.74082 19.1939 7.86063 19.2178 7.98164 19.2178C8.10265 19.2178 8.22247 19.1939 8.33417 19.1473C8.44588 19.1008 8.54726 19.0326 8.63248 18.9467L13.5 14.0608C14.9526 12.6082 15.7686 10.638 15.7686 8.58375C15.7686 6.52945 14.9526 4.55929 13.5 3.10667ZM12.1891 12.75L7.99998 16.9575L3.81081 12.75C2.98319 11.9216 2.41975 10.8665 2.1917 9.71793C1.96365 8.56939 2.08123 7.37902 2.52959 6.29729C2.97794 5.21556 3.73694 4.29104 4.71064 3.6406C5.68433 2.99016 6.82901 2.643 7.99998 2.643C9.17094 2.643 10.3156 2.99016 11.2893 3.6406C12.263 4.29104 13.022 5.21556 13.4704 6.29729C13.9187 7.37902 14.0363 8.56939 13.8083 9.71793C13.5802 10.8665 13.0168 11.9216 12.1891 12.75ZM5.24998 5.7925C4.50996 6.53479 4.09442 7.54019 4.09442 8.58833C4.09442 9.63648 4.50996 10.6419 5.24998 11.3842C5.79976 11.9349 6.49993 12.311 7.26266 12.4653C8.02538 12.6196 8.81668 12.5452 9.53729 12.2515C10.2579 11.9577 10.8757 11.4578 11.3133 10.8142C11.7508 10.1707 11.9885 9.4123 11.9966 8.63417C12.0008 8.1146 11.9007 7.59949 11.7023 7.11927C11.5039 6.63906 11.2113 6.20349 10.8416 5.83833C10.4783 5.4667 10.0451 5.17058 9.56695 4.96701C9.08876 4.76344 8.57504 4.65645 8.05534 4.65219C7.53565 4.64793 7.02024 4.74649 6.53878 4.94219C6.05732 5.13789 5.61932 5.42687 5.24998 5.7925ZM9.54914 10.0825C9.20177 10.4352 8.74267 10.6562 8.25034 10.7079C7.75802 10.7596 7.26303 10.6386 6.85002 10.3657C6.43701 10.0928 6.13162 9.68489 5.98607 9.21174C5.84051 8.7386 5.86382 8.22958 6.05202 7.77173C6.24022 7.31387 6.58162 6.9356 7.01785 6.70159C7.45407 6.46759 7.95804 6.39237 8.44358 6.48881C8.92913 6.58526 9.36609 6.84736 9.67978 7.23032C9.99346 7.61328 10.1644 8.09331 10.1633 8.58833C10.15 9.15416 9.91259 9.69157 9.50331 10.0825H9.54914Z" fill="white"/>
</svg>
